<?xml version="1.0" encoding="UTF-8" standalone="no"?>
<svg
   xmlns:dc="http://purl.org/dc/elements/1.1/"
   xmlns:cc="http://creativecommons.org/ns#"
   xmlns:rdf="http://www.w3.org/1999/02/22-rdf-syntax-ns#"
   xmlns:svg="http://www.w3.org/2000/svg"
   xmlns="http://www.w3.org/2000/svg"
   xmlns:sodipodi="http://sodipodi.sourceforge.net/DTD/sodipodi-0.dtd"
   xmlns:inkscape="http://www.inkscape.org/namespaces/inkscape"
   height="60"
   viewBox="0 0 15.875 15.875"
   width="60"
   version="1.1"
   id="svg12"
   sodipodi:docname="bspwm.svg"
   inkscape:version="0.92.4 5da689c313, 2019-01-14">
  <metadata
     id="metadata18">
    <rdf:RDF>
      <cc:Work
         rdf:about="">
        <dc:format>image/svg+xml</dc:format>
        <dc:type
           rdf:resource="http://purl.org/dc/dcmitype/StillImage" />
        <dc:title></dc:title>
      </cc:Work>
    </rdf:RDF>
  </metadata>
  <defs
     id="defs16">
    <clipPath
       clipPathUnits="userSpaceOnUse"
       id="clipPath1637">
      <g
         inkscape:label="Clip"
         id="use1639"
         style="stroke-width:0.99999994">
        <circle
           cx="7.916575"
           cy="7.9060836"
           r="7.8118935"
           id="circle1672"
           style="fill:#2e2e2e;stroke-width:1" />
        <path
           d="m 7.8526849,4.5129821 c -0.2356461,0 -0.4287089,0.055561 -0.5858062,0.1668374 C 7.1097813,4.7910962 7.034517,4.9546799 7.034517,5.1706876 c 0,0.1309163 0.026229,0.2389328 0.078597,0.3273002 0.052366,0.09164 0.1211224,0.1603964 0.206217,0.2062148 0.085094,0.045822 0.1766513,0.085088 0.2813831,0.1178158 0.1014587,0.032731 0.2029594,0.06222 0.3076912,0.088402 0.1014587,0.026182 0.1930204,0.058941 0.278115,0.091669 0.085094,0.036003 0.1538512,0.085038 0.2062171,0.1504959 0.052366,0.065458 0.081866,0.1472547 0.081866,0.2421676 0,0.1243676 -0.045788,0.2258734 -0.1341555,0.3044226 -0.088367,0.078549 -0.2291392,0.1178158 -0.4222381,0.1178158 -0.1701889,0 -0.320736,-0.045774 -0.4516507,-0.1439599 -0.1341872,-0.098186 -0.2224999,-0.2159826 -0.2617744,-0.356714 -0.00655,-0.013091 -0.0098,-0.039333 -0.013072,-0.072061 -0.00327,-0.032728 -0.00995,-0.055703 -0.023039,-0.065524 -0.013091,-0.00655 -0.035897,-0.013091 -0.071898,-0.013091 h -0.088402 c -0.032728,0 -0.052439,0.00326 -0.062257,0.0098 -0.00982,0.00655 -0.013072,0.019731 -0.013072,0.039381 v 0.029407 c 0,0.013091 0.00327,0.02615 0.00327,0.03268 v 0.6088483 c 0,0.013091 -0.00327,0.026119 -0.00327,0.039216 v 0.03268 c 0,0.022925 0.00325,0.039368 0.016342,0.045916 0.00982,0.0098 0.032792,0.013059 0.068793,0.013059 h 0.088402 c 0.019636,0 0.039198,2.22e-5 0.052289,-0.00326 0.013091,-0.00329 0.026293,-0.00977 0.036113,-0.019605 0.00655,-0.0098 0.013062,-0.019763 0.019608,-0.026308 0.00327,-0.00655 0.0098,-0.016316 0.016342,-0.03268 0.00655,-0.016348 0.013063,-0.029407 0.019608,-0.039219 0.022909,-0.042546 0.039203,-0.065525 0.049022,-0.065525 0.00655,0 0.026255,0.013186 0.062257,0.036111 0.1538246,0.1243677 0.350155,0.1831791 0.5890743,0.1831791 0.2814662,0 0.510546,-0.065499 0.6872811,-0.1964124 0.1734614,-0.1309163 0.2619378,-0.310791 0.2619378,-0.5398897 0,-0.1374618 -0.029499,-0.2554231 -0.081866,-0.3536087 C 8.7658812,5.8612314 8.6971241,5.785955 8.6120301,5.733591 8.5269354,5.6812238 8.4321105,5.6387034 8.3273787,5.6027032 8.2226472,5.5667029 8.1211512,5.533947 8.0164195,5.507765 7.9116874,5.481583 7.8199672,5.4522547 7.7348729,5.4195272 7.6497783,5.3867997 7.5779166,5.3408484 7.5255514,5.281939 7.4731852,5.2230263 7.4469535,5.1477499 7.4469535,5.0593825 c 0,-0.098186 0.039266,-0.1734557 0.1178149,-0.2290924 0.078549,-0.05564 0.1963472,-0.084971 0.3534446,-0.084971 0.1341874,0 0.2584981,0.03927 0.3763212,0.1145462 0.11455,0.075276 0.1930827,0.1766146 0.2356297,0.3075277 0,0.0098 0.00343,0.032794 0.0067,0.068794 0.00327,0.036 0.00979,0.06223 0.019608,0.081866 0.00654,0.019636 0.022843,0.029407 0.045754,0.029407 h 0.1210825 c 0.032729,0 0.052439,-0.00651 0.062258,-0.022862 0.00982,-0.013091 0.016338,-0.03933 0.016338,-0.07206 V 4.6175456 c 0,-0.029439 -0.00653,-0.049006 -0.013072,-0.058824 -0.00654,-0.00655 -0.026264,-0.013091 -0.055721,-0.013091 h -0.065362 c -0.052366,0 -0.085115,0.00326 -0.098207,0.0098 -0.016364,0.00655 -0.03282,0.022862 -0.049185,0.049022 l -0.032681,0.052452 c -0.026182,0.039273 -0.042471,0.055558 -0.052289,0.055558 -0.00655,0 -0.029518,-0.013028 -0.068793,-0.045752 C 8.2225887,4.5652543 8.0523312,4.5129473 7.8526865,4.5129473 Z m 2.7064741,0.02615 c -0.04582,0 -0.06553,0.0197 -0.06553,0.058989 v 0.1178158 c 0,0.039276 0.0034,0.058818 0.01,0.065363 0.0065,0.00655 0.02609,0.0098 0.06536,0.0098 h 0.170268 c 0.05237,0 0.08512,0.00655 0.09821,0.016348 0.0098,0.0098 0.01634,0.036051 0.01634,0.078597 v 1.7214723 0.045916 c 0,0.019637 0.0033,0.032671 0.0033,0.039216 0,0.042549 -0.02298,0.062258 -0.06553,0.062258 h -0.232362 c -0.03273,0 -0.04901,0.00651 -0.05556,0.013059 -0.0065,0.00655 -0.01,0.029344 -0.01,0.06863 v 0.065525 c 0,0.045822 0.0034,0.075318 0.01,0.085136 0.0065,0.0098 0.02936,0.013059 0.06863,0.013059 h 1.067034 c 0.03927,0 0.06208,-0.00329 0.06863,-0.013059 0.0065,-0.00655 0.01307,-0.032778 0.01307,-0.0786 V 6.8039191 c 0,-0.036 -0.02282,-0.055558 -0.06209,-0.055558 -0.0098,0 -0.02301,0.00326 -0.04265,0.00326 -0.01964,0.00329 -0.03594,0.00326 -0.04575,0.00326 h -0.170105 c -0.04909,0 -0.07858,-0.00329 -0.0884,-0.0098 -0.01309,-0.00655 -0.01634,-0.029534 -0.01634,-0.068794 V 6.0184119 c 0,-0.045822 0.01954,-0.06863 0.06536,-0.06863 0.0065,0 0.01974,0.00326 0.03938,0.00326 h 0.04575 0.274847 c 0.301104,0 0.526915,-0.065493 0.684012,-0.1996788 0.153825,-0.1341891 0.232526,-0.3142314 0.232526,-0.5367846 0,-0.2160109 -0.07854,-0.3795788 -0.229094,-0.4974041 C 12.257864,4.6046222 12.02862,4.5456337 11.720971,4.5456337 h -1.073407 c -0.01309,0 -0.02628,-9.5e-6 -0.04592,-0.00326 -0.01964,0 -0.03594,-0.00326 -0.04249,-0.00326 z m -7.4223374,0.00326 c -0.026183,0 -0.045907,0.00651 -0.052453,0.019605 -0.00982,0.013091 -0.013072,0.03606 -0.013072,0.072061 V 4.742065 c 0,0.026182 0.00326,0.039213 0.0098,0.042486 0.00655,0.00655 0.02626,0.00655 0.058989,0.00655 h 0.2454341 c 0.019637,0 0.029403,0.00651 0.035949,0.013091 0.00655,0.00655 0.0098,0.026277 0.0098,0.052452 v 1.7541492 c 0,0.072004 -0.00652,0.1146885 -0.019609,0.1277827 -0.013092,0.013091 -0.052353,0.016348 -0.121083,0.016348 h -0.157032 c -0.029456,0 -0.045907,0.00651 -0.052453,0.013059 -0.00655,0.0098 -0.0098,0.032784 -0.0098,0.072061 v 0.075166 c 0,0.036 0.00325,0.058973 0.01634,0.072064 0.00982,0.013091 0.029538,0.016348 0.055721,0.016348 h 0.042485 c 0.019637,0 0.039198,-0.00326 0.05229,-0.00326 h 1.2405695 c 0.2781934,0 0.5005928,-0.055722 0.6675087,-0.1669987 0.1636432,-0.1112798 0.2488652,-0.2846375 0.2488652,-0.5202818 0,-0.1669165 -0.05899,-0.2979087 -0.1702673,-0.3960943 C 5.1102534,5.8187981 4.9531888,5.7565686 4.753544,5.7271107 c 0.3600149,-0.072 0.5433209,-0.2650768 0.5433209,-0.5760006 0,-0.2029168 -0.081791,-0.3534633 -0.2454338,-0.4549217 C 4.8877926,4.5980008 4.6750056,4.5456906 4.4131766,4.5456906 H 3.2119878 3.1695025 c -0.016364,0 -0.026135,-0.00326 -0.032681,-0.00326 z m 0.8312403,0.2487004 h 0.4451148 c 0.2814662,0 0.4255061,0.1375187 0.4255061,0.4091664 0,0.2749204 -0.1440399,0.4090019 -0.4255061,0.4090019 H 3.9647939 c -0.039274,0 -0.065511,-0.00651 -0.07533,-0.022893 -0.013091,-0.013091 -0.01634,-0.049101 -0.01634,-0.1080102 V 4.8958178 c 0,-0.049091 0.00325,-0.078584 0.013072,-0.088402 0.00655,-0.0098 0.036046,-0.016348 0.081866,-0.016348 z m 7.4323051,0 h 0.3206 c 0.281467,0 0.425507,0.1440421 0.425507,0.425508 0,0.1505496 -0.03928,0.2716129 -0.111279,0.3599803 -0.072,0.088367 -0.176768,0.1308878 -0.314228,0.1308878 h -0.3206 c -0.05237,0 -0.08185,-0.00651 -0.09167,-0.019605 -0.0098,-0.013091 -0.01307,-0.049094 -0.01307,-0.1145493 v -0.703619 c 0,-0.036 0.0032,-0.058982 0.01634,-0.065528 0.0098,-0.00655 0.03931,-0.013059 0.0884,-0.013059 z M 3.9582577,5.8548566 h 0.4876 c 0.1341874,0 0.2454734,0.036007 0.3305679,0.1080102 0.085095,0.072004 0.1276191,0.1832835 0.1276191,0.3338362 0,0.1538224 -0.045793,0.2683686 -0.1308872,0.3436418 C 4.6880631,6.718894 4.5767724,6.7548911 4.4458577,6.7548911 H 3.9844024 c -0.049093,0 -0.078579,-0.00326 -0.09167,-0.013059 -0.013092,-0.0098 -0.019609,-0.0328 -0.019609,-0.065528 V 5.9759515 c 0,-0.052364 0.00325,-0.088383 0.01634,-0.1014742 0.00982,-0.013091 0.032792,-0.019605 0.068794,-0.019605 z"
           id="path1674"
           inkscape:connector-curvature="0"
           style="fill:#ffffff;stroke-width:1" />
        <path
           d="m 6.3452754,8.9268739 c -0.00873,0 -0.019693,0.00221 -0.034969,0.00221 -0.017455,0.00221 -0.028364,0.00221 -0.037093,0.00221 h -0.530085 -0.030555 c -0.013091,0 -0.019655,-0.00221 -0.024022,-0.00221 -0.021818,0 -0.034959,0.00433 -0.041505,0.013059 -0.00873,0.00873 -0.010947,0.030577 -0.010947,0.061113 v 0.065363 c 0,0.00873 -0.00212,0.017518 -0.00212,0.028427 v 0.024032 c 0,0.015273 0.00228,0.026182 0.00883,0.030546 0.00655,0.00655 0.019523,0.00866 0.041341,0.00866 h 0.072062 c 0.034911,0 0.056635,0.011036 0.065362,0.032845 l 0.017483,0.045755 c 0.00655,0.019637 0.010947,0.0349 0.010947,0.043627 0,0.00873 -0.00652,0.030577 -0.019608,0.061113 l -0.1898767,0.445116 c -0.00873,0.024 -0.023991,0.058919 -0.043629,0.1047438 -0.021783,0.047921 -0.032715,0.076355 -0.037093,0.085133 -0.023953,0.05225 -0.03927,0.078435 -0.043629,0.078435 -0.00873,0 -0.019542,-0.01521 -0.028269,-0.04575 C 5.4748054,9.9785742 5.4594345,9.9349091 5.4419795,9.8825419 5.4245249,9.830178 5.4137201,9.7909587 5.4071743,9.7691404 L 5.2347823,9.2781079 c -0.00436,-0.00873 -0.00871,-0.021882 -0.013072,-0.034969 -0.00655,-0.013091 -0.010995,-0.023937 -0.015358,-0.03268 -0.00436,-0.00873 -0.00441,-0.015178 -0.00441,-0.021724 0,-0.017455 0.024108,-0.028427 0.076474,-0.028427 h 0.087258 c 0.024,0 0.039265,-0.00221 0.043629,-0.00866 0.00436,-0.00655 0.00866,-0.02615 0.00866,-0.056702 V 8.9901977 c 0,-0.024 -0.00424,-0.039314 -0.010786,-0.048042 -0.00873,-0.00873 -0.019693,-0.013059 -0.034969,-0.013059 -0.00436,0 -0.013053,0.00221 -0.026144,0.00221 H 5.3176224 4.6826312 4.647826 c -0.015274,0 -0.026193,-0.00221 -0.030557,-0.00221 -0.034911,0 -0.050165,0.019668 -0.050165,0.054577 v 0.1155296 c 0,0.030546 0.00206,0.048089 0.010785,0.052453 0.00655,0.00655 0.028433,0.00866 0.065525,0.00866 H 4.70894 c 0.017455,0 0.032719,0.00221 0.043629,0.00443 0.01091,0.00221 0.019541,0.00651 0.028269,0.013059 0.00655,0.00873 0.010891,0.013123 0.013072,0.017486 0.00218,0.00436 0.00658,0.015273 0.010948,0.030546 0.00436,0.015273 0.00658,0.02615 0.010948,0.03268 l 0.4537749,1.2502087 c 0.00218,0.0065 0.00446,0.01534 0.00883,0.02843 0.00436,0.01309 0.00648,0.01967 0.00866,0.02403 0,0.0044 0.0044,0.0087 0.010947,0.01518 0.00436,0.0065 0.013006,0.01094 0.021733,0.01094 0.00873,0.0022 0.021818,0.0022 0.037093,0.0022 h 0.098206 c 0.013091,0 0.026182,8.3e-5 0.037093,-0.0022 0.00873,0 0.017417,-0.0022 0.026144,-0.0022 0.00873,0 0.015352,-0.0043 0.021897,-0.0087 0.00436,-0.0044 0.00871,-0.0066 0.013072,-0.0088 0.00436,-0.0022 0.00658,-0.0065 0.010947,-0.01521 0.00436,-0.0065 0.00648,-0.011 0.00866,-0.01537 l 0.00883,-0.02172 c 0.00436,-0.01091 0.00642,-0.01961 0.010786,-0.02615 L 5.8238531,9.939298 c 0.00873,-0.021818 0.043697,-0.113547 0.1091542,-0.2750089 0.021818,-0.052364 0.034901,-0.080721 0.043629,-0.080721 0.00873,0 0.023886,0.035036 0.041341,0.100494 0.019636,0.074182 0.050156,0.167922 0.093794,0.2813805 l 0.2008244,0.5302494 0.010947,0.03268 c 0.00436,0.01745 0.0086,0.02836 0.010786,0.03055 0.00218,0.0022 0.00663,0.0064 0.015358,0.01521 0.00655,0.0087 0.015178,0.01325 0.028269,0.01325 0.010909,0.0022 0.026277,0.0022 0.045917,0.0022 h 0.078598 c 0.019636,0 0.037074,-4.8e-5 0.050165,-0.0044 0.013091,-0.0022 0.021828,-0.0043 0.030555,-0.0087 0.00873,-0.0022 0.015187,-0.0088 0.021733,-0.01749 0.00436,-0.0087 0.00871,-0.01749 0.013072,-0.02403 0.00218,-0.0044 0.00658,-0.01521 0.010947,-0.03268 0.00436,-0.01745 0.00658,-0.03048 0.010947,-0.03922 L 7.0609854,9.2455859 c 0.00873,-0.030546 0.015301,-0.050211 0.017483,-0.054574 0.00218,-0.00436 0.010931,-0.010877 0.024022,-0.019605 0.013091,-0.00655 0.036939,-0.010941 0.067486,-0.010941 h 0.09167 c 0.024,0 0.039371,-0.00221 0.045917,-0.00655 0.00436,-0.00436 0.00866,-0.01521 0.00866,-0.03268 V 8.9990135 c 0,-0.032731 -0.0044,-0.052443 -0.010947,-0.058988 -0.00655,-0.00436 -0.028326,-0.00866 -0.063238,-0.00866 H 6.6965947 c -0.039274,0 -0.061104,0.00433 -0.067649,0.013059 -0.00873,0.00873 -0.010947,0.034963 -0.010947,0.0786 v 0.067649 c 0,0.032728 0.00434,0.052279 0.013072,0.058824 0.00873,0.00873 0.03273,0.010941 0.074186,0.010941 0.050184,0 0.083039,0.00221 0.100494,0.00655 0.015273,0.00436 0.023858,0.010941 0.023858,0.024032 0,0.00655 -0.00859,0.032721 -0.023858,0.080722 l -0.1506593,0.432044 c -0.026182,0.074186 -0.058884,0.1657529 -0.093795,0.2748477 -0.026182,0.076364 -0.043677,0.1135658 -0.048041,0.1135658 -0.00655,0 -0.021695,-0.04806 -0.047878,-0.146249 C 6.4522867,9.8979381 6.4303991,9.825925 6.3998522,9.7299212 L 6.2361205,9.2325171 c -0.00873,-0.026182 -0.010786,-0.041439 -0.010786,-0.050166 0,-0.013091 0.015254,-0.021882 0.050165,-0.021882 h 0.050165 c 0.032729,0 0.052386,-0.00221 0.061114,-0.00866 0.00873,-0.00436 0.013072,-0.019731 0.013072,-0.045917 v -0.122066 c 0,-0.021818 -0.00434,-0.035068 -0.013072,-0.043795 -0.00873,-0.00873 -0.024048,-0.013059 -0.041505,-0.013059 z m 2.391103,0.00221 c -0.019636,0 -0.032777,0.00433 -0.041505,0.013059 -0.00873,0.00873 -0.010786,0.028396 -0.010786,0.054577 v 0.1068655 c 0,0.026182 0.00206,0.043678 0.010786,0.048041 0.00654,0.00655 0.026201,0.00882 0.061114,0.00882 H 8.856481 c 0.026182,0 0.045686,0.0043 0.054414,0.00866 0.00873,0.00655 0.013236,0.017455 0.013236,0.030546 0,0.00873 -0.00225,0.02849 -0.00441,0.063403 L 8.873806,10.223069 v 0.05457 c 0,0.02182 -0.00434,0.03915 -0.013072,0.04788 -0.00873,0.0087 -0.026106,0.01325 -0.05229,0.01325 H 8.6992904 c -0.039275,0 -0.063228,0.0042 -0.069774,0.01078 -0.00873,0.0065 -0.010947,0.02621 -0.010947,0.06111 v 0.100329 c 0,0.024 0.00221,0.03931 0.010947,0.04804 0.00654,0.0087 0.017511,0.01094 0.034968,0.01094 h 0.023858 c 0.013091,0 0.024117,-0.0022 0.032844,-0.0022 h 0.5890749 c 0.026182,0 0.041438,-0.0022 0.050165,-0.0087 0.00654,-0.0044 0.010947,-0.01752 0.010947,-0.03497 v -0.139549 c 0,-0.01964 -0.00218,-0.03273 -0.00653,-0.03709 -0.00436,-0.0044 -0.013053,-0.0088 -0.026144,-0.0088 H 9.2055224 c -0.034911,0 -0.058865,-0.0022 -0.069774,-0.01078 -0.013091,-0.0087 -0.017483,-0.02188 -0.017483,-0.0415 0,-0.0065 -5.75e-5,-0.01964 0.00212,-0.03709 0.00218,-0.01745 0.00441,-0.03048 0.00441,-0.03922 l 0.017486,-0.4756742 c 0,0 -5.79e-5,-0.043611 0.00212,-0.1308846 0,-0.087276 0.00218,-0.1637988 0.00653,-0.2292569 0.00218,-0.065458 0.00653,-0.098043 0.013072,-0.098043 0.00873,0 0.028392,0.043608 0.054578,0.1308878 0.024,0.078546 0.061094,0.1962985 0.1112779,0.3490331 l 0.2531151,0.7724128 c 0.00873,0.03055 0.019646,0.04809 0.030555,0.05245 0.00873,0.0065 0.030615,0.0087 0.065525,0.0087 h 0.1635685 c 0.017455,0 0.032662,-0.0022 0.045754,-0.01094 0.010909,-0.0087 0.017534,-0.01742 0.021894,-0.02615 0.00437,-0.0087 0.00871,-0.02185 0.013072,-0.04151 0.00436,-0.01745 0.00658,-0.03048 0.010947,-0.03922 L 10.200474,9.6819556 c 0.01309,-0.037091 0.03492,-0.1178537 0.06765,-0.2400395 0.02182,-0.087276 0.03703,-0.1330128 0.04575,-0.1330128 0.0044,0 0.0087,0.028364 0.01307,0.080721 0.0022,0.054549 0.0044,0.1200451 0.0065,0.1964124 l 0.0023,0.1134047 0.01749,0.5106406 c 0,0.01309 -5.8e-5,0.02618 0.0021,0.04363 0,0.01745 0.0021,0.02833 0.0021,0.03268 0,0.01964 -0.0066,0.03277 -0.01748,0.0415 -0.01092,0.0087 -0.0304,0.01078 -0.06095,0.01078 h -0.104742 c -0.03273,0 -0.05239,0.0044 -0.06111,0.01094 -0.0087,0.0065 -0.01095,0.0197 -0.01095,0.0415 v 0.128763 c 0,0.02182 0.0021,0.03479 0.0087,0.04134 0.0065,0.0065 0.01757,0.0088 0.03285,0.0088 h 0.02402 c 0.01091,0 0.01954,-0.0022 0.02827,-0.0022 h 0.737446 c 0.03491,0 0.05467,-0.0022 0.0634,-0.0087 0.0065,-0.0044 0.01079,-0.02179 0.01079,-0.05016 v -0.126638 c 0,-0.01745 -0.0042,-0.02827 -0.01079,-0.03481 -0.0087,-0.0044 -0.02398,-0.0088 -0.05016,-0.0088 h -0.113566 c -0.03491,0 -0.05663,-0.0043 -0.06536,-0.01521 -0.01091,-0.01091 -0.01536,-0.03051 -0.01536,-0.0567 v -0.06994 l -0.03709,-0.9338582 c 0,-0.00873 -0.0021,-0.017455 -0.0021,-0.030546 v -0.02615 c 0,-0.019636 0.0044,-0.032728 0.01307,-0.037091 0.0087,-0.00436 0.03274,-0.00866 0.06765,-0.00866 h 0.06111 c 0.04146,0 0.06546,-0.00221 0.07419,-0.010941 0.0087,-0.00655 0.01307,-0.028364 0.01307,-0.067653 v -0.080721 c 0,-0.028364 -0.0044,-0.047972 -0.01307,-0.056699 -0.0087,-0.00873 -0.02193,-0.015368 -0.03938,-0.015368 -0.0065,0 -0.01746,0.00221 -0.03056,0.00221 h -0.03478 -0.528125 c -0.024,0 -0.04361,0.00221 -0.0567,0.00655 -0.01527,0.00436 -0.02608,0.013123 -0.0348,0.024032 -0.0087,0.010909 -0.01312,0.021818 -0.01749,0.030546 -0.0044,0.00873 -0.01099,0.023874 -0.01536,0.041341 -0.0044,0.019637 -0.0087,0.035007 -0.01307,0.045917 L 9.9779266,9.5729494 C 9.929925,9.7016838 9.8928788,9.808562 9.8710604,9.8958385 c -0.021818,0.080731 -0.039362,0.1199375 -0.052454,0.1199375 -0.013091,0 -0.028402,-0.041483 -0.048041,-0.1287629 -0.021818,-0.085095 -0.05228,-0.1962669 -0.095918,-0.3315469 L 9.4957191,8.9837122 c -0.00873,-0.021818 -0.017417,-0.037082 -0.026144,-0.043627 -0.00873,-0.00436 -0.026271,-0.00866 -0.052454,-0.00866 H 8.8040272 8.7648099 c -0.015273,0 -0.02407,-0.00221 -0.028433,-0.00221 z"
           id="path1676"
           inkscape:connector-curvature="0"
           style="fill:#ffffff;stroke-width:1" />
        <path
           d="m 6.0416692,1.9641935 c -0.062685,0 -0.1132396,0.050552 -0.1132396,0.1132403 V 7.7930071 H 2.087926 c -0.062686,0 -0.1130761,0.050391 -0.1130761,0.1130758 0,0.062685 0.05039,0.1132403 0.1130761,0.1132403 h 5.7155741 v 5.7155728 c 0,0.06269 0.050555,0.113076 0.1132393,0.113076 0.062684,0 0.1130762,-0.05039 0.1130762,-0.113076 V 8.0193232 h 5.7154114 c 0.06269,0 0.113075,-0.050555 0.113075,-0.1132403 0,-0.062685 -0.05039,-0.1130758 -0.113075,-0.1130758 H 9.8561914 V 2.0774338 c 0,-0.062688 -0.050392,-0.1132403 -0.1130758,-0.1132403 -0.062685,0 -0.11324,0.050552 -0.11324,0.1132403 V 7.7930071 H 6.1547454 V 2.0774338 c 0,-0.062688 -0.050392,-0.1132403 -0.1130762,-0.1132403 z"
           id="path1678"
           inkscape:connector-curvature="0"
           style="fill:#ffffff;stroke-width:1" />
      </g>
    </clipPath>
  </defs>
  <sodipodi:namedview
     pagecolor="#ffffff"
     bordercolor="#666666"
     borderopacity="1"
     objecttolerance="10"
     gridtolerance="10"
     guidetolerance="10"
     inkscape:pageopacity="0"
     inkscape:pageshadow="2"
     inkscape:window-width="1920"
     inkscape:window-height="1044"
     id="namedview14"
     showgrid="false"
     inkscape:pagecheckerboard="true"
     inkscape:showpageshadow="false"
     inkscape:zoom="10.109986"
     inkscape:cx="21.365588"
     inkscape:cy="29.622781"
     inkscape:window-x="0"
     inkscape:window-y="36"
     inkscape:window-maximized="1"
     inkscape:current-layer="svg12" />
  <path
     style="fill:#ffffff;stroke-width:3.77952766"
     d="M 29.921875 0.35546875 A 29.525267 29.525267 0 0 0 0.39648438 29.880859 A 29.525267 29.525267 0 0 0 29.921875 59.40625 A 29.525267 29.525267 0 0 0 59.445312 29.880859 A 29.525267 29.525267 0 0 0 29.921875 0.35546875 z M 22.833984 7.4238281 C 23.070901 7.4238281 23.261719 7.6146315 23.261719 7.8515625 L 23.261719 29.453125 L 36.396484 29.453125 L 36.396484 7.8515625 C 36.396484 7.6146303 36.587299 7.4238281 36.824219 7.4238281 C 37.061134 7.4238281 37.251953 7.6146315 37.251953 7.8515625 L 37.251953 29.453125 L 51.951172 29.453125 C 52.188092 29.453125 52.376953 29.64394 52.376953 29.880859 C 52.376953 30.11778 52.18811 30.308594 51.951172 30.308594 L 30.349609 30.308594 L 30.349609 51.912109 C 30.349609 52.149033 30.158791 52.337891 29.921875 52.337891 C 29.684958 52.337891 29.494141 52.149048 29.494141 51.912109 L 29.494141 30.308594 L 7.890625 30.308594 C 7.6537012 30.308594 7.4648438 30.117779 7.4648438 29.880859 C 7.4648438 29.64394 7.6537015 29.453125 7.890625 29.453125 L 22.40625 29.453125 L 22.40625 7.8515625 C 22.40625 7.6146303 22.597065 7.4238281 22.833984 7.4238281 z M 29.679688 17.056641 C 30.434248 17.056641 31.07682 17.255215 31.621094 17.638672 C 31.769535 17.762353 31.856103 17.810547 31.880859 17.810547 C 31.917967 17.810547 31.981123 17.749996 32.080078 17.601562 L 32.203125 17.402344 C 32.264977 17.303471 32.326824 17.241553 32.388672 17.216797 C 32.438153 17.192079 32.561847 17.179687 32.759766 17.179688 L 33.007812 17.179688 C 33.119146 17.179688 33.192079 17.205713 33.216797 17.230469 C 33.241523 17.267576 33.267578 17.339906 33.267578 17.451172 L 33.267578 19.851562 C 33.267578 19.975266 33.242193 20.075522 33.205078 20.125 C 33.167967 20.186803 33.094403 20.210938 32.970703 20.210938 L 32.511719 20.210938 C 32.425126 20.210938 32.364562 20.173824 32.339844 20.099609 C 32.302736 20.025395 32.277984 19.927079 32.265625 19.791016 C 32.253266 19.654953 32.240234 19.568289 32.240234 19.53125 C 32.079427 19.03646 31.782554 18.651693 31.349609 18.367188 C 30.904294 18.082679 30.434899 17.935547 29.927734 17.935547 C 29.33398 17.935547 28.888675 18.045566 28.591797 18.255859 C 28.294919 18.46614 28.146484 18.75195 28.146484 19.123047 C 28.146484 19.457034 28.24544 19.740228 28.443359 19.962891 C 28.641275 20.18554 28.912758 20.358727 29.234375 20.482422 C 29.555991 20.606116 29.90299 20.717451 30.298828 20.816406 C 30.694664 20.915362 31.076821 21.039717 31.472656 21.175781 C 31.868493 21.311845 32.22721 21.471999 32.548828 21.669922 C 32.870443 21.867833 33.130204 22.152365 33.328125 22.523438 C 33.526048 22.894531 33.638672 23.339834 33.638672 23.859375 C 33.638672 24.72526 33.304038 25.405589 32.648438 25.900391 C 31.980462 26.395181 31.114591 26.642578 30.050781 26.642578 C 29.147779 26.642578 28.405603 26.421223 27.824219 25.951172 C 27.688148 25.864526 27.6146 25.814453 27.589844 25.814453 C 27.552733 25.814453 27.490882 25.901696 27.404297 26.0625 C 27.37956 26.099585 27.354834 26.14915 27.330078 26.210938 C 27.305352 26.272784 27.279937 26.309228 27.267578 26.333984 C 27.242837 26.358721 27.218115 26.396554 27.193359 26.433594 C 27.156244 26.470765 27.106118 26.49538 27.056641 26.507812 C 27.007163 26.520218 26.93359 26.519531 26.859375 26.519531 L 26.525391 26.519531 C 26.389324 26.519531 26.30274 26.507742 26.265625 26.470703 C 26.216143 26.445955 26.203125 26.383521 26.203125 26.296875 L 26.203125 26.173828 C 26.203125 26.124328 26.216797 26.074868 26.216797 26.025391 L 26.216797 23.724609 C 26.216797 23.699929 26.203125 23.649087 26.203125 23.599609 L 26.203125 23.488281 C 26.203125 23.414014 26.216791 23.3646 26.253906 23.339844 C 26.291014 23.315126 26.364585 23.302734 26.488281 23.302734 L 26.822266 23.302734 C 26.958332 23.302734 27.044272 23.32876 27.09375 23.353516 C 27.14322 23.390634 27.169282 23.475913 27.181641 23.599609 C 27.194007 23.723306 27.205713 23.823569 27.230469 23.873047 C 27.378908 24.404945 27.713539 24.849606 28.220703 25.220703 C 28.715499 25.591799 29.284501 25.765625 29.927734 25.765625 C 30.657557 25.765625 31.189452 25.617191 31.523438 25.320312 C 31.857423 25.023436 32.029297 24.639973 32.029297 24.169922 C 32.029297 23.811196 31.918622 23.501307 31.720703 23.253906 C 31.522785 23.006506 31.263021 22.821621 30.941406 22.685547 C 30.619789 22.56185 30.274091 22.436846 29.890625 22.337891 C 29.494788 22.238935 29.110028 22.127614 28.726562 22.003906 C 28.330728 21.880211 27.985678 21.731779 27.664062 21.558594 C 27.342447 21.385422 27.082684 21.125653 26.884766 20.779297 C 26.686839 20.44531 26.587891 20.037771 26.587891 19.542969 C 26.587891 18.726562 26.87109 18.108073 27.464844 17.6875 C 28.058597 17.266928 28.789057 17.056641 29.679688 17.056641 z M 39.908203 17.15625 C 39.932959 17.15625 39.994129 17.167969 40.068359 17.167969 C 40.142589 17.180254 40.192713 17.179688 40.242188 17.179688 L 44.298828 17.179688 C 45.461596 17.179687 46.329237 17.402984 46.898438 17.835938 C 47.467458 18.281259 47.763672 18.900378 47.763672 19.716797 C 47.763672 20.557943 47.466151 21.236969 46.884766 21.744141 C 46.291013 22.2513 45.438812 22.5 44.300781 22.5 L 43.261719 22.5 L 43.087891 22.5 C 43.013661 22.5 42.96402 22.488281 42.939453 22.488281 C 42.766275 22.488281 42.691406 22.572908 42.691406 22.746094 L 42.691406 25.232422 C 42.691406 25.380806 42.704432 25.469385 42.753906 25.494141 C 42.791021 25.518745 42.902354 25.529297 43.087891 25.529297 L 43.730469 25.529297 C 43.767546 25.529297 43.830067 25.530013 43.904297 25.517578 C 43.978527 25.517578 44.027414 25.505859 44.064453 25.505859 C 44.212875 25.505859 44.300781 25.578781 44.300781 25.714844 L 44.300781 26.111328 C 44.300781 26.284514 44.274567 26.383447 44.25 26.408203 C 44.225244 26.445125 44.138656 26.457031 43.990234 26.457031 L 39.958984 26.457031 C 39.810562 26.457031 39.723786 26.445242 39.699219 26.408203 C 39.674274 26.371096 39.660156 26.259121 39.660156 26.085938 L 39.660156 25.839844 C 39.660156 25.691361 39.674652 25.604834 39.699219 25.580078 C 39.723975 25.555326 39.784499 25.53125 39.908203 25.53125 L 40.787109 25.53125 C 40.947928 25.53125 41.035156 25.455737 41.035156 25.294922 C 41.035156 25.270185 41.021484 25.220703 41.021484 25.146484 L 41.021484 24.972656 L 41.021484 18.466797 C 41.021484 18.305993 40.997975 18.206961 40.960938 18.169922 C 40.911463 18.13289 40.787778 18.107422 40.589844 18.107422 L 39.945312 18.107422 C 39.796892 18.107422 39.723786 18.095068 39.699219 18.070312 C 39.674274 18.045577 39.660156 17.972663 39.660156 17.824219 L 39.660156 17.378906 C 39.660156 17.230412 39.735025 17.15625 39.908203 17.15625 z M 11.855469 17.167969 C 11.88021 17.167969 11.916667 17.179688 11.978516 17.179688 L 12.140625 17.179688 L 16.679688 17.179688 C 17.669275 17.179688 18.473321 17.378897 19.091797 17.75 C 19.710289 18.133465 20.019531 18.70182 20.019531 19.46875 C 20.019531 20.643895 19.327483 21.374358 17.966797 21.646484 C 18.72136 21.757821 19.3151 21.992173 19.748047 22.363281 C 20.168622 22.734376 20.390625 23.230463 20.390625 23.861328 C 20.390625 24.751952 20.069666 25.405587 19.451172 25.826172 C 18.820309 26.246745 17.979174 26.458984 16.927734 26.458984 L 12.238281 26.458984 C 12.1888 26.458984 12.115234 26.470703 12.041016 26.470703 L 11.880859 26.470703 C 11.7819 26.470703 11.707037 26.457681 11.669922 26.408203 C 11.620448 26.358725 11.607422 26.272782 11.607422 26.136719 L 11.607422 25.851562 C 11.607422 25.703116 11.619775 25.617117 11.644531 25.580078 C 11.669272 25.555326 11.73242 25.53125 11.84375 25.53125 L 12.4375 25.53125 C 12.697267 25.53125 12.84505 25.518228 12.894531 25.46875 C 12.944001 25.41926 12.96875 25.258469 12.96875 24.986328 L 12.96875 18.355469 C 12.96875 18.25654 12.956397 18.182959 12.931641 18.158203 C 12.9069 18.13333 12.86914 18.107422 12.794922 18.107422 L 11.867188 18.107422 C 11.743487 18.107422 11.669287 18.10874 11.644531 18.083984 C 11.619813 18.071614 11.607422 18.020831 11.607422 17.921875 L 11.607422 17.513672 C 11.607422 17.377605 11.621088 17.291663 11.658203 17.242188 C 11.682944 17.192695 11.756509 17.167969 11.855469 17.167969 z M 14.998047 18.107422 C 14.824869 18.107422 14.712256 18.132883 14.6875 18.169922 C 14.650377 18.207029 14.638672 18.318365 14.638672 18.503906 L 14.638672 20.705078 C 14.638672 20.927727 14.651694 21.063803 14.701172 21.113281 C 14.738283 21.175201 14.835938 21.201172 14.984375 21.201172 L 16.679688 21.201172 C 17.743495 21.201172 18.287109 20.693366 18.287109 19.654297 C 18.287109 18.627597 17.743495 18.107422 16.679688 18.107422 L 14.998047 18.107422 z M 43.087891 18.107422 C 42.902354 18.107422 42.790946 18.133447 42.753906 18.158203 C 42.704243 18.182944 42.691406 18.268234 42.691406 18.404297 L 42.691406 21.064453 C 42.691406 21.311843 42.705148 21.448569 42.742188 21.498047 C 42.7793 21.54754 42.889957 21.572266 43.087891 21.572266 L 44.298828 21.572266 C 44.818362 21.572266 45.216155 21.410157 45.488281 21.076172 C 45.760403 20.742185 45.908203 20.285803 45.908203 19.716797 C 45.908203 18.652989 45.36264 18.107422 44.298828 18.107422 L 43.087891 18.107422 z M 14.960938 22.128906 C 14.824867 22.128906 14.738287 22.153647 14.701172 22.203125 C 14.651698 22.252604 14.638672 22.388026 14.638672 22.585938 L 14.638672 25.232422 C 14.638672 25.356118 14.663409 25.443429 14.712891 25.480469 C 14.762368 25.517504 14.873045 25.53125 15.058594 25.53125 L 16.802734 25.53125 C 17.29753 25.53125 17.719399 25.394535 18.041016 25.097656 C 18.362631 24.813159 18.535156 24.380204 18.535156 23.798828 C 18.535156 23.22981 18.374353 22.80925 18.052734 22.537109 C 17.731117 22.264971 17.309899 22.128906 16.802734 22.128906 L 14.960938 22.128906 z M 23.982422 33.740234 C 24.048401 33.740234 24.105677 33.756067 24.138672 33.789062 C 24.171675 33.822046 24.1875 33.872616 24.1875 33.955078 L 24.1875 34.416016 C 24.1875 34.514986 24.171667 34.573365 24.138672 34.589844 C 24.105684 34.614222 24.031903 34.623047 23.908203 34.623047 L 23.71875 34.623047 C 23.586803 34.623047 23.529297 34.6556 23.529297 34.705078 C 23.529297 34.738062 23.537317 34.795576 23.570312 34.894531 L 24.1875 36.775391 C 24.302953 37.13824 24.38607 37.410331 24.435547 37.591797 C 24.534506 37.962905 24.592432 38.144531 24.617188 38.144531 C 24.633681 38.144531 24.699873 38.003464 24.798828 37.714844 C 24.930775 37.302517 25.053388 36.956169 25.152344 36.675781 L 25.722656 35.042969 C 25.780362 34.861548 25.8125 34.763037 25.8125 34.738281 C 25.8125 34.688803 25.780381 34.662963 25.722656 34.646484 C 25.656685 34.630081 25.531469 34.623047 25.341797 34.623047 C 25.185113 34.623047 25.095495 34.613073 25.0625 34.580078 C 25.029497 34.555341 25.013672 34.483071 25.013672 34.359375 L 25.013672 34.103516 C 25.013672 33.938588 25.021692 33.839636 25.054688 33.806641 C 25.079425 33.773649 25.16211 33.755859 25.310547 33.755859 L 27.371094 33.755859 C 27.503045 33.755859 27.586572 33.772584 27.611328 33.789062 C 27.636073 33.8138 27.652344 33.888011 27.652344 34.011719 L 27.652344 34.474609 C 27.652344 34.540638 27.635619 34.581178 27.619141 34.597656 C 27.5944 34.614059 27.536021 34.623047 27.445312 34.623047 L 27.099609 34.623047 C 26.984156 34.623047 26.893228 34.639307 26.84375 34.664062 C 26.794272 34.69705 26.762146 34.721803 26.753906 34.738281 C 26.745659 34.754771 26.720495 34.82791 26.6875 34.943359 L 25.095703 39.544922 C 25.079198 39.577955 25.071166 39.627407 25.054688 39.693359 C 25.038182 39.759388 25.021911 39.799776 25.013672 39.816406 C 24.997186 39.841124 24.979369 39.875321 24.962891 39.908203 C 24.93815 39.941047 24.913855 39.966294 24.880859 39.974609 C 24.847875 39.991239 24.815103 39.999498 24.765625 40.007812 C 24.716147 40.024261 24.650387 40.023438 24.576172 40.023438 L 24.279297 40.023438 C 24.205067 40.023437 24.1467 40.02394 24.105469 40.015625 C 24.055991 40.015625 24.022803 39.997726 23.998047 39.964844 C 23.965059 39.931546 23.949646 39.916518 23.941406 39.908203 C 23.933144 39.899926 23.916869 39.858922 23.900391 39.792969 L 23.859375 39.667969 L 23.099609 37.664062 C 22.934678 37.235243 22.818355 36.881935 22.744141 36.601562 C 22.678169 36.354162 22.620886 36.220703 22.587891 36.220703 C 22.554903 36.220703 22.50629 36.329433 22.423828 36.527344 C 22.176431 37.137593 22.044714 37.483945 22.011719 37.566406 L 21.136719 39.644531 C 21.120217 39.669249 21.112182 39.700953 21.095703 39.742188 L 21.0625 39.824219 C 21.054261 39.840735 21.045776 39.858246 21.029297 39.882812 C 21.012792 39.915732 21.00476 39.933091 20.988281 39.941406 C 20.971795 39.949721 20.955932 39.957979 20.939453 39.974609 C 20.914716 39.991239 20.890417 40.005859 20.857422 40.005859 C 20.824438 40.005859 20.790808 40.015625 20.757812 40.015625 C 20.716574 40.024254 20.666665 40.023438 20.617188 40.023438 L 20.246094 40.023438 C 20.188361 40.023437 20.138464 40.02394 20.105469 40.015625 C 20.072485 40.015625 20.039916 39.999176 20.023438 39.974609 C 19.998693 39.950118 19.982422 39.932646 19.982422 39.916016 C 19.974183 39.899537 19.965697 39.875646 19.949219 39.826172 C 19.932702 39.776698 19.924255 39.743317 19.916016 39.71875 L 18.201172 34.992188 C 18.184663 34.967507 18.176635 34.926865 18.160156 34.869141 C 18.143647 34.811416 18.12738 34.770385 18.119141 34.753906 C 18.110897 34.737416 18.093115 34.720495 18.068359 34.6875 C 18.035372 34.662748 18.004125 34.647025 17.962891 34.638672 C 17.921656 34.630281 17.862847 34.621094 17.796875 34.621094 L 17.550781 34.621094 C 17.410591 34.621094 17.32749 34.6146 17.302734 34.589844 C 17.269758 34.57335 17.261719 34.506074 17.261719 34.390625 L 17.261719 33.953125 C 17.261719 33.821185 17.319225 33.748047 17.451172 33.748047 C 17.467666 33.748047 17.508678 33.755859 17.566406 33.755859 L 17.697266 33.755859 L 20.097656 33.755859 L 20.205078 33.755859 C 20.254556 33.755859 20.288209 33.748047 20.304688 33.748047 C 20.362424 33.748047 20.404505 33.76388 20.4375 33.796875 C 20.462241 33.829863 20.476562 33.887807 20.476562 33.978516 L 20.476562 34.375 C 20.476562 34.490472 20.461791 34.565088 20.445312 34.589844 C 20.428819 34.614222 20.370006 34.621094 20.279297 34.621094 L 19.949219 34.621094 C 19.7513 34.621094 19.660156 34.662544 19.660156 34.728516 C 19.660156 34.753256 19.661256 34.777552 19.677734 34.810547 C 19.694224 34.843591 19.711572 34.886069 19.736328 34.935547 C 19.752814 34.98501 19.768678 35.033411 19.785156 35.066406 L 20.4375 36.921875 C 20.46224 37.004338 20.502389 37.153652 20.568359 37.351562 C 20.634331 37.549486 20.692697 37.714196 20.742188 37.837891 C 20.775171 37.953317 20.814661 38.011719 20.847656 38.011719 C 20.864131 38.011719 20.923141 37.912324 21.013672 37.714844 C 21.030219 37.681667 21.071967 37.573697 21.154297 37.392578 C 21.228519 37.219382 21.285364 37.086802 21.318359 36.996094 L 22.037109 35.314453 C 22.086576 35.199041 22.109375 35.11698 22.109375 35.083984 C 22.109375 35.051 22.093115 34.992187 22.068359 34.917969 L 22.001953 34.746094 C 21.968969 34.663666 21.887806 34.621094 21.755859 34.621094 L 21.484375 34.621094 C 21.401913 34.621094 21.352881 34.612647 21.328125 34.587891 C 21.303369 34.571397 21.292969 34.530381 21.292969 34.472656 L 21.292969 34.382812 C 21.292969 34.341582 21.302734 34.308386 21.302734 34.275391 L 21.302734 34.027344 C 21.302734 33.911932 21.310755 33.82987 21.34375 33.796875 C 21.368491 33.763884 21.417538 33.748047 21.5 33.748047 C 21.516505 33.748047 21.542319 33.755859 21.591797 33.755859 L 21.707031 33.755859 L 23.708984 33.755859 C 23.741976 33.755859 23.783638 33.7564 23.849609 33.748047 C 23.907345 33.748047 23.949427 33.740234 23.982422 33.740234 z M 33.019531 33.748047 C 33.036021 33.748047 33.069228 33.755859 33.126953 33.755859 L 33.275391 33.755859 L 35.591797 33.755859 C 35.690756 33.755859 35.75802 33.772584 35.791016 33.789062 C 35.824 33.8138 35.855677 33.872616 35.888672 33.955078 L 36.566406 36.115234 C 36.731337 36.626529 36.845273 37.047522 36.927734 37.369141 C 37.001961 37.699017 37.059897 37.855469 37.109375 37.855469 C 37.158857 37.855469 37.226132 37.707469 37.308594 37.402344 C 37.391057 37.07248 37.529514 36.668196 37.710938 36.181641 L 38.396484 34.316406 C 38.413001 34.275172 38.428683 34.21875 38.445312 34.144531 C 38.461829 34.078514 38.487276 34.021277 38.503906 33.988281 C 38.520423 33.955294 38.537431 33.912325 38.570312 33.871094 C 38.60327 33.829863 38.643458 33.797729 38.701172 33.78125 C 38.750646 33.764847 38.825307 33.755859 38.916016 33.755859 L 40.912109 33.755859 L 41.042969 33.755859 C 41.092481 33.755859 41.133636 33.748047 41.158203 33.748047 C 41.224156 33.748047 41.273759 33.773645 41.306641 33.806641 C 41.339409 33.839625 41.357422 33.912329 41.357422 34.019531 L 41.357422 34.326172 C 41.357422 34.474666 41.339523 34.557275 41.306641 34.582031 C 41.273645 34.61503 41.184043 34.623047 41.027344 34.623047 L 40.796875 34.623047 C 40.664932 34.623047 40.573898 34.639771 40.541016 34.65625 C 40.508247 34.67274 40.490234 34.720707 40.490234 34.794922 L 40.490234 34.894531 C 40.490234 34.944009 40.498047 34.97677 40.498047 35.009766 L 40.638672 38.539062 L 40.638672 38.802734 C 40.638672 38.90172 40.656031 38.976343 40.697266 39.017578 C 40.730261 39.058813 40.811416 39.076172 40.943359 39.076172 L 41.373047 39.076172 C 41.471995 39.076172 41.529618 39.092745 41.5625 39.109375 C 41.587407 39.134093 41.603516 39.174282 41.603516 39.240234 L 41.603516 39.71875 C 41.603516 39.825975 41.587067 39.891573 41.5625 39.908203 C 41.529505 39.93277 41.456162 39.941406 41.324219 39.941406 L 38.537109 39.941406 C 38.504114 39.941406 38.470922 39.949219 38.429688 39.949219 L 38.337891 39.949219 C 38.280139 39.949219 38.239411 39.940583 38.214844 39.916016 C 38.189899 39.89126 38.181641 39.842235 38.181641 39.759766 L 38.181641 39.273438 C 38.181641 39.191044 38.189774 39.141754 38.222656 39.117188 C 38.255614 39.092469 38.329421 39.076172 38.453125 39.076172 L 38.849609 39.076172 C 38.965074 39.076172 39.038806 39.068038 39.080078 39.035156 C 39.121199 39.002161 39.146484 38.951183 39.146484 38.876953 C 39.146484 38.860512 39.138672 38.819859 39.138672 38.753906 C 39.130516 38.687953 39.130859 38.639318 39.130859 38.589844 L 39.064453 36.660156 L 39.054688 36.230469 C 39.04675 35.941836 39.039565 35.694451 39.03125 35.488281 C 39.014733 35.290397 38.999052 35.183594 38.982422 35.183594 C 38.949464 35.183594 38.891063 35.355685 38.808594 35.685547 C 38.68489 36.147351 38.602208 36.453564 38.552734 36.59375 L 37.546875 39.578125 C 37.53037 39.611158 37.522338 39.66061 37.505859 39.726562 C 37.489373 39.800868 37.473548 39.851884 37.457031 39.884766 C 37.440553 39.917761 37.414278 39.94954 37.373047 39.982422 C 37.323565 40.015455 37.267144 40.023438 37.201172 40.023438 L 36.582031 40.023438 C 36.450088 40.023437 36.36698 40.014801 36.333984 39.990234 C 36.292754 39.973756 36.251745 39.908433 36.21875 39.792969 L 35.261719 36.873047 C 35.072047 36.295782 34.932506 35.851554 34.841797 35.554688 C 34.742826 35.224811 34.667761 35.060547 34.634766 35.060547 C 34.61004 35.060547 34.594177 35.182287 34.585938 35.429688 C 34.569497 35.677088 34.560547 35.967013 34.560547 36.296875 C 34.552315 36.626728 34.552734 36.791016 34.552734 36.791016 L 34.488281 38.589844 C 34.488281 38.622877 34.478942 38.672328 34.470703 38.738281 C 34.462473 38.804234 34.462891 38.852386 34.462891 38.876953 C 34.462891 38.951107 34.479819 39.002274 34.529297 39.035156 C 34.570528 39.067585 34.661022 39.076172 34.792969 39.076172 L 35.294922 39.076172 C 35.3444 39.076172 35.378053 39.092745 35.394531 39.109375 C 35.410972 39.125854 35.419922 39.173817 35.419922 39.248047 L 35.419922 39.775391 C 35.419922 39.841343 35.403624 39.891573 35.378906 39.908203 C 35.345922 39.93277 35.286456 39.941406 35.1875 39.941406 L 32.962891 39.941406 C 32.929907 39.941406 32.887368 39.949219 32.837891 39.949219 L 32.748047 39.949219 C 32.682068 39.949219 32.639952 39.941085 32.615234 39.908203 C 32.582213 39.875208 32.574219 39.817271 32.574219 39.726562 L 32.574219 39.347656 C 32.574219 39.215751 32.582239 39.141754 32.615234 39.117188 C 32.639975 39.092318 32.730465 39.076172 32.878906 39.076172 L 33.291016 39.076172 C 33.389979 39.076172 33.457239 39.058273 33.490234 39.025391 C 33.523237 38.992395 33.539062 38.926219 33.539062 38.84375 L 33.539062 38.638672 L 33.712891 35.009766 C 33.721054 34.877811 33.728516 34.802527 33.728516 34.769531 C 33.728516 34.720053 33.712683 34.679053 33.679688 34.654297 C 33.6467 34.637818 33.571612 34.623047 33.472656 34.623047 L 33.09375 34.623047 C 32.961795 34.623047 32.887999 34.612647 32.863281 34.587891 C 32.830301 34.571401 32.822266 34.507159 32.822266 34.408203 L 32.822266 34.003906 C 32.822266 33.904954 32.830286 33.82987 32.863281 33.796875 C 32.896269 33.763884 32.945316 33.748047 33.019531 33.748047 z "
     id="circle2"
     transform="scale(0.26458333)" />
</svg>
