<?xml version="1.0" encoding="UTF-8" standalone="no"?>
<svg
   xmlns:dc="http://purl.org/dc/elements/1.1/"
   xmlns:cc="http://creativecommons.org/ns#"
   xmlns:rdf="http://www.w3.org/1999/02/22-rdf-syntax-ns#"
   xmlns:svg="http://www.w3.org/2000/svg"
   xmlns="http://www.w3.org/2000/svg"
   xmlns:sodipodi="http://sodipodi.sourceforge.net/DTD/sodipodi-0.dtd"
   xmlns:inkscape="http://www.inkscape.org/namespaces/inkscape"
   width="60"
   height="60"
   viewBox="0 0 60 60"
   version="1.1"
   id="svg35"
   sodipodi:docname="deepin.svg"
   inkscape:version="0.92.4 5da689c313, 2019-01-14">
  <metadata
     id="metadata39">
    <rdf:RDF>
      <cc:Work
         rdf:about="">
        <dc:format>image/svg+xml</dc:format>
        <dc:type
           rdf:resource="http://purl.org/dc/dcmitype/StillImage" />
        <dc:title>ISO安装器-256px</dc:title>
      </cc:Work>
    </rdf:RDF>
  </metadata>
  <sodipodi:namedview
     pagecolor="#ffffff"
     bordercolor="#666666"
     borderopacity="1"
     objecttolerance="10"
     gridtolerance="10"
     guidetolerance="10"
     inkscape:pageopacity="0"
     inkscape:pageshadow="2"
     inkscape:window-width="1920"
     inkscape:window-height="1044"
     id="namedview37"
     showgrid="false"
     inkscape:zoom="5.2149125"
     inkscape:cx="47.553257"
     inkscape:cy="30.252569"
     inkscape:window-x="0"
     inkscape:window-y="36"
     inkscape:window-maximized="1"
     inkscape:current-layer="ISO安装器-256px"
     inkscape:showpageshadow="false"
     inkscape:pagecheckerboard="true" />
  <!-- Generator: Sketch 39.1 (31720) - http://www.bohemiancoding.com/sketch -->
  <title
     id="title2">ISO安装器-256px</title>
  <desc
     id="desc4">Created with Sketch.</desc>
  <defs
     id="defs11">
    <linearGradient
       x1="0.49999547"
       y1="0.006944444"
       x2="0.49999547"
       y2="1"
       id="linearGradient-1">
      <stop
         stop-color="#FFDD89"
         offset="0%"
         id="stop6" />
      <stop
         stop-color="#FFAF32"
         offset="100%"
         id="stop8" />
    </linearGradient>
  </defs>
  <g
     style="fill:none;fill-rule:evenodd;stroke:none;stroke-width:4.098382"
     id="ISO安装器-256px"
     transform="matrix(0.33422937,0,0,0.32520635,-12.688874,-3.5732191)">
    <path
       style="opacity:1;fill:#ffffff;stroke-width:4.098382"
       inkscape:connector-curvature="0"
       id="path11795"
       d="m 158.49201,20.688104 c -12.57153,-4.586178 -25.44923,-5.823321 -37.94579,-4.661156 -14.48976,1.14342 -21.562807,5.629625 -21.144172,4.81736 C 75.708579,29.304367 55.676602,47.499116 46.397916,73.016752 29.877458,118.45988 53.277266,168.71414 98.652252,185.25936 144.04601,201.80458 194.22593,178.37384 210.74637,132.93071 227.27307,87.487576 203.87326,37.239577 158.49201,20.688104 Z M 101.63894,177.04299 c -4.836177,-1.76825 -9.353678,-4.0176 -13.608754,-6.58561 21.144174,1.62453 48.736574,-3.24906 67.343944,-20.66278 0,0 35.47148,-28.34183 9.8098,-74.853404 0,0 4.13636,18.744591 -1.1372,34.165144 0,0 -5.02986,20.96894 -27.3862,27.06094 C 103.73211,145.13969 66.211195,122.09009 50.528019,110.92457 49.3471,99.44663 50.396807,87.587547 54.601896,76.015886 60.837686,58.870834 72.559447,45.493444 86.880504,36.508537 c -3.580267,25.049022 -0.749795,48.111116 3.317832,57.770829 5.460995,12.952514 14.952134,28.060654 33.465784,29.997594 18.51365,1.94319 28.72333,-15.38306 28.72333,-15.38306 9.49738,-14.433338 10.98447,-35.158606 10.84076,-35.658461 -0.14371,-0.506104 -2.53055,-1.874459 -2.53055,-1.874459 -6.39199,25.867534 -16.93283,34.50878 -16.93283,34.50878 -16.62042,16.04538 -28.39218,4.91734 -28.39218,4.91734 -12.65277,-13.589827 -3.7927,-35.677202 -3.7927,-35.677202 4.95488,-15.045658 19.39465,-37.064304 35.75889,-48.261073 2.72426,0.674806 5.46724,1.093434 8.16025,2.074402 9.90352,3.611457 18.57614,9.053636 25.91161,15.739207 -11.96545,4.367491 -31.28513,13.602325 -31.28513,13.602325 -30.6228,12.896278 -32.69098,32.403149 -32.69098,32.403149 -3.16788,20.106702 12.78397,11.596652 12.78397,11.596652 16.42048,-7.997691 24.487,-32.921748 24.487,-32.921748 -5.12358,-0.974719 -9.15997,0.581083 -9.15997,0.581083 -6.55444,16.176581 -19.92576,22.83091 -19.92576,22.83091 -5.26105,2.786696 -6.48571,-2.136883 -6.48571,-2.136883 -0.88726,-3.686436 3.8052,-4.317504 3.8052,-4.317504 7.28549,-2.830433 11.9467,-10.484474 13.00267,-13.614821 1.04971,-3.136594 3.00542,-3.380275 3.00542,-3.380275 9.98474,-3.186579 19.08848,-3.898874 19.08848,-3.898874 12.39659,-1.52456 31.37261,4.386234 31.37261,4.386234 4.25508,1.712006 8.33521,2.992886 11.9592,4.01759 6.95434,17.376236 8.05403,37.164268 1.16218,56.133798 -14.8584,40.89446 -60.03345,61.98836 -100.89094,47.09892 z" />
    <g
       style="fill:#b08043;stroke-width:4.098382"
       transform="translate(80,168)"
       id="Page-1" />
  </g>
</svg>
